<svg xmlns="http://www.w3.org/2000/svg" viewBox="0 0 100 100">
  <title>codepen</title>
      <path fill="currentColor" d="M100,34.13v-.19a.7.7,0,0,1-.2-.4v-.19a.19.19,0,0,0-.19-.2V33c0-.2-.2-.2-.2-.39v-.2a.19.19,0,0,1-.19-.19L99,32a.19.19,0,0,0-.19-.19l-.2-.2-.19-.19-.2-.2h-.19L52.34.73a4.13,4.13,0,0,0-4.68,0L2,31.2H1.76l-.2.2-.19.19-.2.2L1,32l-.2.2v.19a.19.19,0,0,0-.19.2c0,.19-.2.19-.2.39v.19a.19.19,0,0,0-.19.2v.19a.7.7,0,0,1-.2.4V66c0,.19.2.19.2.39v.19a.19.19,0,0,0,.19.2v.19c0,.2.2.2.2.39a.19.19,0,0,0,.19.2v.19l.2.2.19.2.2.19.19.2.2.19H2L47.66,99.17A3.72,3.72,0,0,0,50,100a3.37,3.37,0,0,0,2.34-.78L98.05,68.7h.19l.2-.19.19-.2.2-.19a.19.19,0,0,0,.19-.2l.2-.2a.19.19,0,0,1,.19-.19v-.2c0-.19.2-.19.2-.39v-.19a.19.19,0,0,0,.19-.2v-.19A.66.66,0,0,1,100,66V34.13ZM54.3,12.26,87.89,34.72l-15,10.15L54.3,32.37Zm-8.6,0V32.37L27.15,44.87l-15-10.15ZM8.59,42.72,19.34,50,8.59,57.18ZM45.7,87.65,12.11,65.19l15-10L45.7,67.53ZM50,60.11,34.77,50,50,39.79,65.23,50Zm4.3,27.54V67.53L72.85,55.22l15,10ZM91.41,57.18,80.66,50l10.75-7.23Z"/>
</svg>
