<svg xmlns="http://www.w3.org/2000/svg" viewBox="0 0 100 84.75">
  <title>github</title>

      <path fill="currentColor" d="M67.37,49.36c1.91,0,3.39.85,4.88,2.76a12.63,12.63,0,0,1,0,14c-1.49,1.7-3,2.76-4.88,2.76a6.22,6.22,0,0,1-5.08-2.76,11,11,0,0,1-2.12-7,11,11,0,0,1,2.12-7,5.73,5.73,0,0,1,5.08-2.76M92,23.94a29.81,29.81,0,0,1,8,21,49.49,49.49,0,0,1-1.91,14.4,35.3,35.3,0,0,1-4.66,10.6,36.42,36.42,0,0,1-7,7,50.47,50.47,0,0,1-7.63,4.45A38.44,38.44,0,0,1,71,83.47a62.13,62.13,0,0,1-6.78.85c-1.48,0-3.17.21-4.87.21H55.51a53.81,53.81,0,0,1-5.51.22,53.81,53.81,0,0,1-5.51-.22H40.68c-1.7,0-3.39-.21-4.87-.21A62.13,62.13,0,0,1,29,83.47a38.44,38.44,0,0,1-7.84-2.11,50.47,50.47,0,0,1-7.63-4.45,36.42,36.42,0,0,1-7-7,35.3,35.3,0,0,1-4.66-10.6A49.49,49.49,0,0,1,0,44.92a29.81,29.81,0,0,1,8.05-21c-.42-.21-.63-3.18,0-8.69A50.38,50.38,0,0,1,11.65,0c6.57.85,14.83,4.45,24.58,11.44C39.62,10.38,44.28,10,50,10c6.14,0,10.59.42,13.77,1.48A81.09,81.09,0,0,1,76.48,4,52,52,0,0,1,85.59.64L88.35,0A50.38,50.38,0,0,1,92,15.25c.63,5.51.42,8.48,0,8.69M50.21,79.66c12.08,0,21.19-1.48,27.33-4.24,6.15-3,9.11-8.89,9.11-17.79a16.66,16.66,0,0,0-5.93-13.14,12.16,12.16,0,0,0-7-3.39,58.14,58.14,0,0,0-12.29,0c-5.51.43-9.11.64-11.23.64h-.42c-2.33,0-5.3-.21-9.11-.43-3.6-.21-6.57-.42-8.48-.63a28.3,28.3,0,0,0-7,.85,13,13,0,0,0-5.93,3,16.58,16.58,0,0,0-5.72,13.14c0,8.9,3,14.83,9.11,17.79,6.14,2.76,15,4.24,27.12,4.24h.42M32.84,49.36a5.64,5.64,0,0,1,4.87,2.76,11,11,0,0,1,2.12,7,11,11,0,0,1-2.12,7,6.15,6.15,0,0,1-4.87,2.76,6.89,6.89,0,0,1-5.09-2.76,12.63,12.63,0,0,1,0-14,6.27,6.27,0,0,1,5.09-2.76"/>

</svg>
