<svg  xmlns="http://www.w3.org/2000/svg" viewBox="0 0 100 100">
      <path fill="currentColor" d="M50,9c13.35,0,14.93.05,20.2.29,3.17.03,6.31.61,9.29,1.71,2.17.8,4.13,2.08,5.75,3.74,1.67,1.62,2.95,3.59,3.76,5.77,1.09,2.98,1.67,6.12,1.7,9.29.24,5.27.29,6.85.29,20.2s0,14.93-.29,20.2c-.03,3.17-.61,6.31-1.7,9.29-1.68,4.37-5.14,7.83-9.51,9.51-2.98,1.09-6.12,1.67-9.29,1.7-5.27.24-6.85.29-20.2.29s-14.93,0-20.21-.29c-3.17-.03-6.31-.61-9.28-1.7-2.17-.8-4.14-2.08-5.75-3.74-1.67-1.62-2.95-3.59-3.76-5.77-1.09-2.98-1.67-6.12-1.7-9.29-.24-5.27-.3-6.85-.3-20.2s.05-14.93.29-20.2c.04-3.17.61-6.31,1.71-9.29.8-2.17,2.08-4.14,3.74-5.75,1.62-1.67,3.59-2.95,5.77-3.76,2.97-1.09,6.11-1.67,9.28-1.7,5.28-.24,6.86-.3,20.21-.3M50,0c-13.58,0-15.28.06-20.62.3-4.15.08-8.25.87-12.13,2.32-3.34,1.26-6.36,3.23-8.86,5.77-2.54,2.5-4.51,5.52-5.77,8.86-1.45,3.89-2.24,7.99-2.32,12.14-.24,5.33-.3,7.03-.3,20.61s.06,15.28.3,20.61c.08,4.15.87,8.25,2.32,12.14,2.6,6.72,7.91,12.03,14.63,14.62,3.88,1.46,7.98,2.25,12.13,2.33,5.34.24,7,.3,20.62.3s15.28-.06,20.61-.3c4.15-.08,8.26-.87,12.14-2.33,6.72-2.59,12.03-7.9,14.62-14.62,1.46-3.88,2.25-7.99,2.33-12.14.24-5.33.3-7,.3-20.61s-.06-15.28-.3-20.61c-.08-4.15-.87-8.25-2.33-12.14-2.59-6.72-7.9-12.03-14.62-14.63-3.89-1.45-7.99-2.24-12.14-2.32-5.33-.24-7.03-.3-20.61-.3M50,24.32c-14.18,0-25.68,11.49-25.69,25.67,0,14.18,11.49,25.68,25.67,25.69,14.18,0,25.68-11.49,25.69-25.67h0c0-14.19-11.49-25.68-25.67-25.69M50,66.67c-9.21,0-16.67-7.46-16.67-16.67s7.46-16.67,16.67-16.67,16.67,7.46,16.67,16.67-7.46,16.67-16.67,16.67M76.69,17.31c-3.31,0-6,2.69-6,6s2.69,6,6,6,6-2.69,6-6-2.69-6-6-6"/>
</svg>